<svg width="5391" height="5903" viewBox="0 0 5391 5903" fill="none" xmlns="http://www.w3.org/2000/svg">
<path d="M4476.5 1289.5L5390.04 2382.06V3239H5390V4021.25H5390.04L4475.81 5019.27L3798.72 3626.6L4435.82 4112.08L4691.9 3785.81V2660.19L4435.63 2367.64L913.357 5018.57L0 4021.25V3239H0.0410156V2456.75H0L914.232 1458.73L1591.32 2851.4L954.227 2365.92L699 2701.84V3776.16L954.186 3942.08L4476.5 1289.5V1289.5Z" fill="#FF0000"/>
<path d="M2723.94 0L4255.5 1197.48L1916.5 2959L1150.5 1284L2723.94 0Z" fill="white"/>
<path d="M4199 5215L2994.5 4767.5V4767.5L1035 5215L3329 3451.5L4199 5215Z" fill="white"/>
<path d="M4330.5 5432L4534.01 5903H667.598L971 5357L2988 4942L4330.5 5432Z" fill="white"/>
</svg>
