<svg width="4885" height="1727" viewBox="0 0 4885 1727" fill="none" xmlns="http://www.w3.org/2000/svg">
<path d="M0 50C0 22.3858 22.3858 0 50 0H4835C4862.61 0 4885 22.3858 4885 50V863.5C4885 1340.4 4498.4 1727 4021.5 1727H50.0001C22.3858 1727 0 1704.61 0 1677V50Z" fill="white"/>
<path d="M282.641 791.211V280L478.95 280V791.211H282.641Z" fill="#212121"/>
<path d="M522.365 791.211V280H781.309L1080.36 604.25V280L1275.81 280V791.211H1017.72L718.674 466.961V791.211H522.365Z" fill="#212121"/>
<path d="M1320.02 791.211V280L1938.12 280V424.593H1516.33V503.485H1888.04V648.078H1516.33V791.211H1320.02Z" fill="#212121"/>
<path d="M1971.52 791.211V280H2167.83V791.211H1971.52Z" fill="#212121"/>
<path d="M2211.23 791.211V280H2470.18L2769.22 604.25V280H2964.67V791.211H2706.59L2407.54 466.961V791.211H2211.23Z" fill="#212121"/>
<path d="M3008.9 791.211V280H3205.21V791.211H3008.9Z" fill="#212121"/>
<path d="M3499.22 791.211V424.593H3237.75V280H3956.1V424.593H3695.48V791.211H3499.22Z" fill="#212121"/>
<path d="M3989.48 791.211V280H4607.58V412.906H4185.79V477.898H4607.58V593.313H4185.79V658.305H4607.58V791.211H3989.48Z" fill="#212121"/>
<path d="M763.333 1441.88H661.158L556.712 1327.08H402.313V1263.42H574.309C625.964 1263.42 653.211 1233.86 653.211 1180.44C653.211 1127.01 623.693 1100.87 574.309 1100.87H349.523V1441.88H278V1028.68H574.309C668.537 1028.68 724.166 1087.23 724.166 1179.3C724.166 1247.5 692.378 1295.82 639.02 1316.28L763.333 1441.88Z" fill="#212121"/>
<path d="M1317.86 1441.88H1231.01L1169.14 1337.87H973.87L1007.93 1279.33H1134.51L1042.55 1124.74L855.233 1441.88H772.925L1010.2 1046.3C1018.71 1032.09 1029.5 1023 1045.39 1023C1061.29 1023 1071.5 1032.09 1080.02 1046.3L1317.86 1441.88Z" fill="#212121"/>
<path d="M1719.33 1431.65L1429.26 1139.51V1441.88H1360.58V1066.76C1360.58 1040.05 1374.77 1023.57 1397.48 1023.57C1408.26 1023.57 1417.34 1027.55 1428.13 1038.35L1719.33 1327.64V1025.27H1788.01V1403.8C1788.01 1431.09 1773.25 1447 1752.25 1447C1740.33 1447 1729.55 1441.88 1719.33 1431.65Z" fill="#212121"/>
<path d="M2308 1441.88H2197.88L1966.85 1260.01C1954.36 1250.35 1952.09 1241.25 1952.09 1229.88C1952.09 1217.38 1955.49 1208.29 1970.25 1196.92L2188.79 1028.68H2299.48L2029.29 1230.45L2308 1441.88ZM1929.95 1441.88H1857.86V1028.68H1929.95V1441.88Z" fill="#212121"/>
<path d="M2430.61 1441.88H2358.52V1028.68H2430.61V1441.88Z" fill="#212121"/>
<path d="M2862.93 1431.65L2572.86 1139.51V1441.88H2504.18V1066.76C2504.18 1040.05 2518.37 1023.57 2541.07 1023.57C2551.86 1023.57 2560.94 1027.55 2571.73 1038.35L2862.93 1327.64V1025.27H2931.61V1403.8C2931.61 1431.09 2916.85 1447 2895.85 1447C2883.93 1447 2873.14 1441.88 2862.93 1431.65Z" fill="#212121"/>
<path d="M3439.11 1441.88H3189.91C3074.68 1441.88 2989.54 1350.95 2989.54 1231.02C2989.54 1109.39 3074.68 1028.68 3189.91 1028.68H3413.56V1100.87H3189.91C3116.12 1100.87 3061.63 1156 3061.63 1234.43C3061.63 1312.3 3115.55 1369.7 3189.91 1369.7H3366.45V1262.28H3180.26V1201.47H3439.11V1441.88Z" fill="#212121"/>
<path d="M3814.71 1441.88H3505.35V1369.7H3814.71C3853.31 1369.7 3874.88 1348.1 3874.88 1315.71C3874.88 1280.47 3853.31 1262.28 3814.71 1262.28H3625.12C3547.35 1262.28 3499.1 1212.83 3499.1 1144.63C3499.1 1078.13 3543.95 1028.68 3626.26 1028.68H3922.56V1100.87H3626.26C3593.33 1100.87 3574.03 1120.19 3574.03 1151.45C3574.03 1182.71 3593.9 1201.47 3625.69 1201.47H3814.71C3898.16 1201.47 3943 1240.68 3943 1320.82C3943 1390.16 3900.99 1441.88 3814.71 1441.88Z" fill="#212121"/>
</svg>
