<svg width="22970" height="5903" viewBox="0 0 22970 5903" fill="none" xmlns="http://www.w3.org/2000/svg">
<path d="M16759.1 1290H16027.4L13938.5 3478.98H14673.4L16759.1 1290Z" fill="#A80000"/>
<path d="M6714.8 3480.05V1291.28L7449.7 1291.28V3480.05H6714.8Z" fill="white"/>
<path d="M7612.2 3480.05V1291.28H8581.58L9701.07 2679.57V1291.28L10432.8 1291.28V3480.05H9466.59L8347.1 2091.76V3480.05H7612.2Z" fill="white"/>
<path d="M10598.3 3480.05V1291.28L12912.2 1291.28V1910.36H11333.2V2248.14H12724.7V2867.23H11333.2V3480.05H10598.3Z" fill="white"/>
<path d="M13037.2 3480.05V1291.28H13772.1V3480.05H13037.2Z" fill="white"/>
<path d="M13934.6 3480.05V1291.28H14904L16023.5 2679.57V1291.28H16755.1V3480.05H15789L14669.5 2091.76V3480.05H13934.6Z" fill="white"/>
<path d="M16920.7 3480.05V1291.28H17655.6V3480.05H16920.7Z" fill="white"/>
<path d="M18756.3 3480.05V1910.36H17777.4V1291.28H20466.6V1910.36H19491V3480.05H18756.3Z" fill="white"/>
<path d="M20591.6 3480.05V1291.28H22905.4V1860.32H21326.5V2138.59H22905.4V2632.75H21326.5V2911.01H22905.4V3480.05H20591.6Z" fill="white"/>
<rect x="6715.15" y="3984.63" width="16190.7" height="1344.04" fill="white"/>
<path d="M22969.8 5438.48H6625V3838.75H22969.8V5438.48ZM11141.7 4020.79C10843.4 4020.79 10626.8 4071.52 10491.8 4172.95C10356.8 4274.3 10289.3 4425.83 10289.3 4627.49C10289.3 4830.27 10356.8 4982.69 10491.8 5084.72C10626.8 5186.68 10843.4 5237.64 11141.7 5237.64C11438.5 5237.64 11654.8 5186.38 11790.3 5083.82C11926 4981.3 11993.8 4829.18 11993.8 4627.49C11993.8 4425.83 11926 4274.3 11790.3 4172.95C11654.8 4071.52 11438.5 4020.79 11141.7 4020.79ZM18468.7 4020.79C18189.8 4020.79 17977.4 4071.52 17831.4 4172.95C17685.5 4274.3 17612.6 4425.83 17612.6 4627.49C17612.6 4831.4 17683.3 4984.05 17824.7 5085.48C17966.1 5186.94 18161.4 5237.64 18410.7 5237.64C18554 5237.64 18673.4 5220.18 18768.9 5185.21C18864.5 5150.29 18942 5103.5 19001.3 5044.92L19032.3 5220.66H19311.2V4580.17H18437.7V4804.88H18848.3C18840.6 4845.44 18805.4 4878.71 18742.8 4904.62C18680.2 4930.57 18588.9 4943.53 18468.7 4943.53C18382.1 4943.53 18312.4 4934.81 18259.5 4917.39C18206.6 4899.89 18166.3 4876.2 18138.5 4846.34C18110.7 4816.52 18091.9 4783.85 18082.2 4748.4C18072.6 4712.88 18067.8 4677.05 18067.8 4641C18067.8 4604.95 18072.6 4570.07 18082.2 4536.31C18091.9 4502.47 18110.7 4472.02 18138.5 4444.98C18166.3 4417.94 18206.6 4396.27 18259.5 4379.94C18312.4 4363.53 18382.1 4355.3 18468.7 4355.3C18556.5 4355.3 18626.8 4362.93 18679.8 4378.14C18732.8 4393.38 18772.5 4412.53 18798.9 4435.67C18825.4 4458.8 18841.8 4482.19 18848.3 4505.81H19311.2C19300.9 4349.22 19225.6 4229.24 19085.5 4145.91C18945.5 4062.51 18739.9 4020.79 18468.7 4020.79ZM19390.7 4627.48C19390.7 4833.68 19458.1 4986.94 19593 5087.28C19727.9 5187.54 19944.6 5237.64 20242.9 5237.64C20539.9 5237.64 20756.1 5187.24 20891.7 5086.37C21027.3 4985.55 21095.2 4832.59 21095.2 4627.48V4037.61H20641.9V4627.48C20641.9 4661.24 20637 4694.48 20627.3 4727.22C20617.6 4759.89 20599.3 4789.48 20572.2 4816C20545.1 4842.43 20505 4863.58 20452 4879.38C20399.1 4895.12 20329.4 4902.97 20242.9 4902.97C20156.3 4902.97 20086.9 4895.38 20034.6 4880.14C19982.3 4864.93 19942.7 4844.09 19915.6 4817.65C19888.5 4791.14 19870.1 4761.55 19860.3 4728.88C19850.7 4696.24 19845.9 4662.44 19845.9 4627.48V4037.61H19390.7V4627.48ZM6983.21 5220.66H7438.38V4931.66H8048.48C8151.77 4931.66 8242.15 4912.54 8319.62 4874.28C8397.09 4835.94 8457.73 4783.25 8501.59 4716.26C8545.53 4649.19 8567.52 4571.72 8567.52 4483.88C8567.52 4395.97 8545.53 4318.5 8501.59 4251.51C8457.73 4184.44 8397.09 4132.02 8319.62 4094.24C8242.15 4056.5 8151.77 4037.61 8048.48 4037.61H6983.21V5220.66ZM8646.97 5220.66H9102.13V4931.66H9481.73L9681.25 5220.66H10217.7L9973.74 4875.93C10053.7 4839.88 10116.6 4787.76 10162.4 4719.56C10208.3 4651.37 10231.3 4572.81 10231.3 4483.88C10231.3 4395.97 10209.3 4318.5 10165.3 4251.51C10121.5 4184.44 10060.8 4132.02 9983.38 4094.24C9905.91 4056.5 9815.53 4037.61 9712.24 4037.61H8646.97V5220.66ZM12890.6 5220.66H14285.2V4885.99H13345.8V4037.61H12890.6V5220.66ZM14368.4 5220.66H15801.8V4913.03H14823.6V4762.67H15801.8V4495.6H14823.6V4345.24H15801.8V4037.61H14368.4V5220.66ZM15861.7 5220.66H16361.4L16473.8 4995.95H17122.7L17233 5220.66H17732.8L17128.4 4037.61H16468L15861.7 5220.66ZM21193.9 4037.61V5220.66H22627.2V4913.03H21649.1V4762.67H22627.2V4495.6H21649.1V4345.24H22627.2V4037.61H21193.9ZM11141.7 4355.3C11248.8 4355.3 11331.1 4366.87 11388.5 4390C11446 4413.14 11485.7 4444.98 11507.7 4485.54C11529.6 4526.09 11540.5 4573.41 11540.5 4627.49C11540.5 4681.56 11529.2 4729.18 11506.6 4770.33C11484.1 4811.42 11444.1 4843.79 11386.6 4867.52C11329.1 4891.18 11247.5 4902.97 11141.7 4902.97C11035.7 4902.97 10954 4891.48 10896.5 4868.42C10839.1 4845.29 10799.4 4812.92 10777.4 4771.24C10755.4 4729.48 10744.5 4681.56 10744.5 4627.49C10744.5 4573.41 10755.4 4525.87 10777.4 4484.79C10799.4 4443.63 10839.1 4411.78 10896.5 4389.25C10954 4366.65 11035.7 4355.3 11141.7 4355.3ZM16992.9 4715.36H16601.6L16797.3 4319.85L16992.9 4715.36ZM7951.56 4372.28C7974.85 4372.28 7999.08 4373.7 8024.21 4376.48C8049.43 4379.3 8070.73 4388.61 8088.08 4404.42C8105.51 4420.16 8114.25 4446.63 8114.25 4483.88C8114.25 4521.06 8105.51 4547.53 8088.08 4563.34C8070.73 4579.08 8049.43 4588.65 8024.21 4592.03C7999.08 4595.34 7974.85 4596.99 7951.56 4596.99H7438.38V4372.28H7951.56ZM9615.32 4372.28C9638.6 4372.28 9662.83 4373.7 9687.97 4376.48C9713.19 4379.3 9734.49 4388.61 9751.83 4404.42C9769.26 4420.16 9778 4446.63 9778 4483.88C9778 4521.06 9769.26 4547.53 9751.83 4563.34C9734.49 4579.08 9713.19 4588.65 9687.97 4592.03C9662.83 4595.34 9638.6 4596.99 9615.32 4596.99H9102.13V4372.28H9615.32Z" fill="#FF0000"/>
<path d="M4476.5 1289.5L5390.04 2382.06V3239H5390V4021.25H5390.04L4475.81 5019.27L3798.72 3626.6L4435.82 4112.08L4691.9 3785.81V2660.19L4435.63 2367.64L913.357 5018.57L0 4021.25V3239H0.0410156V2456.75H0L914.232 1458.73L1591.32 2851.4L954.227 2365.92L699 2701.84V3776.16L954.186 3942.08L4476.5 1289.5V1289.5Z" fill="#FF0000"/>
<path d="M2723.94 0L4255.5 1197.48L1916.5 2959L1150.5 1284L2723.94 0Z" fill="white"/>
<path d="M4199 5215L2994.5 4767.5V4767.5L1035 5215L3329 3451.5L4199 5215Z" fill="white"/>
<path d="M4330.5 5432L4534.01 5903H667.598L971 5357L2988 4942L4330.5 5432Z" fill="white"/>
</svg>
